; NON-PLATED HOLES START AT T1
; THROUGH (PLATED) HOLES START AT T100
M48
INCH
T100C0.044111
T101C0.044139
T102C0.038000
T103C0.035433
%
T100
X008728Y020095
X003728Y020095
X006728Y020095
X000728Y020095
X005728Y021095
X007728Y020095
X001728Y021095
X003728Y021095
X002728Y020095
X001728Y020095
X006728Y021095
X000728Y021095
X007728Y021095
X002728Y021095
X008728Y021095
X005728Y020095
T101
X009728Y021095
X004728Y020095
X009728Y020095
X004728Y021095
T102
X003728Y005095
X003728Y007095
X003728Y006095
T103
X007728Y009095
X005728Y009095
T00
M30
